# xmcd
#
# Track frame offsets:
#	150
#	11395
#	31745
#	56045
#	80250
#	106380
#	126510
#	155955
#	171820
#	197195
#	213770
#	248000
#	266310
#	290395
#
# Disc length: 4084 seconds
#
# Revision: 3
# Processed by: cddbd v1.5.1PL0 Copyright (c) Steve Scherf et al.
# Submitted via: EasyCDDAExtractor 5.1.0
#
DISCID=bc0ff20e
DTITLE=Ozzy Osbourne - Philadelphia 25-04-81
DYEAR=1981
DGENRE=Hard Rock
TTITLE0=Intro
TTITLE1=I Don't Know
TTITLE2=Crazy Train
TTITLE3=Believer
TTITLE4=Mr Crowley
TTITLE5=Flying High Again
TTITLE6=Revelation (Mother Eart)
TTITLE7=Steal Away (The Night)
TTITLE8=Drum Solo
TTITLE9=No Bone Movies
TTITLE10=Suicide Solution
TTITLE11=Iron Man
TTITLE12=Children Of The Grave
TTITLE13=Paranoid
EXTD=
EXTT0=
EXTT1=
EXTT2=
EXTT3=
EXTT4=
EXTT5=
EXTT6=
EXTT7=
EXTT8=
EXTT9=
EXTT10=
EXTT11=
EXTT12=
EXTT13=
PLAYORDER=
